<svg width="32" height="33" viewBox="0 0 32 33" fill="none" xmlns="http://www.w3.org/2000/svg">
<path d="M9.33203 14.9883H11.9987V17.6549H9.33203V14.9883ZM9.33203 20.3216H11.9987V22.9883H9.33203V20.3216ZM14.6654 14.9883H17.332V17.6549H14.6654V14.9883ZM14.6654 20.3216H17.332V22.9883H14.6654V20.3216ZM19.9987 14.9883H22.6654V17.6549H19.9987V14.9883ZM19.9987 20.3216H22.6654V22.9883H19.9987V20.3216Z" fill="#526652"/>
<path d="M6.66667 29.6549H25.3333C26.804 29.6549 28 28.4589 28 26.9883V8.32161C28 6.85095 26.804 5.65495 25.3333 5.65495H22.6667V2.98828H20V5.65495H12V2.98828H9.33333V5.65495H6.66667C5.196 5.65495 4 6.85095 4 8.32161V26.9883C4 28.4589 5.196 29.6549 6.66667 29.6549ZM25.3333 10.9883L25.3347 26.9883H6.66667V10.9883H25.3333Z" fill="#526652"/>
</svg>
