<svg width="24" height="24" viewBox="0 0 24 24" fill="none" xmlns="http://www.w3.org/2000/svg">
<path d="M18.7309 5.40912L17.4509 6.40912L12.0009 10.4591L6.55093 6.36912L5.27093 5.36912C4.96938 5.11966 4.60128 4.96416 4.21222 4.92187C3.82316 4.87958 3.43024 4.95236 3.08214 5.1312C2.73404 5.31004 2.44605 5.58708 2.25387 5.92799C2.06168 6.26891 1.97374 6.65871 2.00093 7.04912V18.6391C2.00093 18.9998 2.14421 19.3457 2.39926 19.6008C2.65431 19.8558 3.00023 19.9991 3.36093 19.9991H6.55093V12.2791L12.0009 16.3691L17.4509 12.2791V19.9991H20.6409C21.0016 19.9991 21.3475 19.8558 21.6026 19.6008C21.8576 19.3457 22.0009 18.9998 22.0009 18.6391V7.04912C22.0197 6.66208 21.9256 6.27792 21.7302 5.94334C21.5347 5.60876 21.2463 5.33817 20.8999 5.16445C20.5535 4.99073 20.1641 4.92138 19.7791 4.96481C19.394 5.00825 19.0299 5.16261 18.7309 5.40912Z" fill="#ADCCAF"/>
</svg>
