<svg width="24" height="25" viewBox="0 0 24 25" fill="none" xmlns="http://www.w3.org/2000/svg">
<path d="M6.72694 11.5001H18.2739C19.1359 11.5001 19.5939 10.4801 19.0209 9.83509L13.2479 3.34009C13.1543 3.2344 13.0393 3.14978 12.9105 3.09183C12.7818 3.03387 12.6422 3.00391 12.5009 3.00391C12.3597 3.00391 12.2201 3.03387 12.0914 3.09183C11.9626 3.14978 11.8476 3.2344 11.7539 3.34009L5.97894 9.83509C5.40594 10.4801 5.86394 11.5001 6.72694 11.5001ZM11.7529 21.6591C11.8466 21.7648 11.9616 21.8494 12.0904 21.9074C12.2191 21.9653 12.3587 21.9953 12.4999 21.9953C12.6412 21.9953 12.7808 21.9653 12.9095 21.9074C13.0383 21.8494 13.1533 21.7648 13.2469 21.6591L19.0199 15.1641C19.5939 14.5201 19.1359 13.5001 18.2729 13.5001H6.72694C5.86494 13.5001 5.40694 14.5201 5.97994 15.1651L11.7529 21.6591Z" fill="black"/>
</svg>
