<svg width="32" height="38" viewBox="0 0 32 38" fill="none" xmlns="http://www.w3.org/2000/svg">
<path d="M11.0233 19.0732C10.778 19.0732 10.6127 19.0972 10.5273 19.1212V20.6919C10.6287 20.7159 10.7553 20.7226 10.93 20.7226C11.5687 20.7226 11.962 20.3999 11.962 19.8546C11.962 19.3666 11.6233 19.0732 11.0233 19.0732ZM15.6727 19.0892C15.406 19.0892 15.2327 19.1132 15.13 19.1372V22.6172C15.2327 22.6412 15.398 22.6412 15.5473 22.6412C16.6367 22.6492 17.346 22.0492 17.346 20.7799C17.354 19.6732 16.7073 19.0892 15.6727 19.0892Z" fill="#FF0012"/>
<path d="M18.6673 2.16602H8.00065C7.29341 2.16602 6.61513 2.44697 6.11503 2.94706C5.61494 3.44716 5.33398 4.12544 5.33398 4.83268V26.166C5.33398 26.8733 5.61494 27.5515 6.11503 28.0516C6.61513 28.5517 7.29341 28.8327 8.00065 28.8327H24.0007C24.7079 28.8327 25.3862 28.5517 25.8863 28.0516C26.3864 27.5515 26.6673 26.8733 26.6673 26.166V10.166L18.6673 2.16602ZM12.6647 21.086C12.2527 21.4727 11.6447 21.646 10.9367 21.646C10.7994 21.6475 10.6622 21.6395 10.526 21.622V23.5233H9.33398V18.2753C9.87192 18.1951 10.4155 18.1585 10.9593 18.166C11.702 18.166 12.23 18.3073 12.586 18.5913C12.9247 18.8607 13.154 19.302 13.154 19.822C13.1527 20.3447 12.9793 20.786 12.6647 21.086ZM17.7407 22.8927C17.1807 23.358 16.3287 23.5793 15.2873 23.5793C14.6633 23.5793 14.222 23.5393 13.922 23.4993V18.2767C14.4601 18.1981 15.0035 18.1611 15.5473 18.166C16.5567 18.166 17.2127 18.3473 17.7247 18.734C18.278 19.1447 18.6247 19.7993 18.6247 20.7393C18.6247 21.7567 18.2527 22.4593 17.7407 22.8927ZM22.6673 19.1927H20.6247V20.4073H22.534V21.386H20.6247V23.5247H19.4167V18.206H22.6673V19.1927ZM18.6673 11.4993H17.334V4.83268L24.0007 11.4993H18.6673Z" fill="#FF0012"/>
</svg>
